<?xml version="1.0" standalone="no"?>
<!DOCTYPE svg PUBLIC "-//W3C//DTD SVG 20010904//EN"
 "http://www.w3.org/TR/2001/REC-SVG-20010904/DTD/svg10.dtd">
<svg version="1.0" xmlns="http://www.w3.org/2000/svg"
 width="422.000000pt" height="437.000000pt" viewBox="0 0 422.000000 437.000000"
 preserveAspectRatio="xMidYMid meet">
<metadata>
Created by potrace 1.14, written by Peter Selinger 2001-2017
</metadata>
<g transform="translate(0.000000,437.000000) scale(0.100000,-0.100000)"
fill="#000000" stroke="none">
<path d="M2966 4339 c5 -19 9 -62 9 -95 0 -107 -44 -131 -169 -89 -140 47
-315 43 -517 -11 -50 -13 -96 -24 -103 -24 -7 0 -21 20 -30 44 -9 25 -30 62
-46 84 -35 49 -123 95 -172 90 -30 -3 -33 -6 -36 -38 -7 -75 -44 -233 -67
-285 -13 -31 -51 -93 -84 -138 -72 -99 -88 -134 -112 -252 -42 -197 -35 -458
17 -649 51 -191 51 -184 6 -343 -67 -230 -77 -296 -76 -488 0 -151 4 -181 27
-268 73 -275 269 -518 514 -641 191 -96 444 -126 692 -84 39 6 59 13 50 18 -8
4 -73 24 -146 43 -159 43 -253 82 -344 143 -87 57 -154 132 -193 214 -29 61
-31 72 -31 180 0 97 4 125 24 179 l24 63 -16 103 c-21 128 -21 207 -2 320 26
150 97 299 192 404 l49 55 -81 80 c-63 62 -91 99 -121 160 -38 77 -39 84 -39
180 0 88 3 108 27 158 52 111 154 193 256 205 141 16 273 -94 387 -322 77
-155 112 -272 171 -562 7 -34 30 -28 83 22 58 54 84 110 106 228 11 57 30 114
56 165 21 42 51 122 66 177 24 89 26 118 27 275 1 154 -2 184 -22 255 -57 198
-183 364 -344 455 l-40 22 8 -33z"/>
<path d="M2380 3420 c0 -63 17 -145 41 -191 24 -47 93 -106 138 -119 64 -18
145 -12 175 11 53 42 39 60 -159 211 -99 75 -183 137 -187 137 -5 1 -8 -21 -8
-49z"/>
<path d="M3449 2753 c-157 -150 -243 -307 -269 -489 -21 -156 20 -265 161
-419 181 -199 384 -545 514 -878 21 -53 42 -94 46 -90 13 15 51 129 74 227 78
320 41 671 -110 1042 -147 363 -301 684 -328 684 -4 0 -44 -35 -88 -77z"/>
<path d="M2731 2750 c-206 -259 -305 -525 -288 -780 9 -147 45 -254 122 -369
45 -68 350 -376 660 -666 446 -417 619 -610 742 -827 53 -94 82 -132 69 -92
-174 572 -254 791 -371 1010 -118 222 -234 401 -437 677 -370 502 -434 637
-447 942 l-6 160 -44 -55z"/>
<path d="M552 988 c-101 -181 -352 -692 -352 -717 0 -7 36 -11 100 -11 l100 0
25 55 24 55 134 0 133 0 23 -55 23 -55 109 0 c81 0 109 3 108 13 -1 22 -374
762 -385 765 -7 2 -25 -21 -42 -50z"/>
<path d="M1222 1015 c-117 -28 -186 -113 -185 -229 0 -70 18 -119 59 -160 38
-37 79 -54 175 -71 95 -17 137 -37 145 -71 11 -41 -10 -72 -57 -84 -64 -17
-108 -5 -155 44 l-41 43 -69 -27 c-38 -15 -70 -34 -72 -41 -5 -27 56 -107 103
-134 99 -58 276 -56 383 6 76 43 107 101 107 199 0 139 -64 202 -240 235 -129
24 -155 41 -155 99 0 46 67 74 134 55 21 -6 48 -25 68 -48 l32 -38 73 30 c40
16 73 32 73 36 -1 24 -53 91 -93 118 -76 51 -177 65 -285 38z"/>
<path d="M2273 855 l-170 -174 -164 169 c-90 94 -169 170 -175 170 -8 0 -13
-63 -18 -197 -3 -109 -9 -280 -13 -380 l-6 -183 97 0 96 0 0 83 c0 45 3 118 6
163 l7 81 80 -84 c44 -46 85 -83 91 -83 6 0 47 36 91 80 66 66 81 77 87 63 3
-10 7 -82 7 -160 l1 -143 94 0 c52 0 97 4 100 8 3 5 1 116 -4 248 -15 391 -22
514 -30 514 -5 0 -84 -79 -177 -175z"/>
<path d="M2813 1020 c-151 -30 -238 -171 -192 -311 30 -88 92 -130 229 -154
91 -16 125 -33 142 -71 17 -36 -16 -76 -70 -88 -70 -15 -129 15 -177 92 -1 1
-33 -11 -71 -26 -50 -21 -70 -34 -72 -49 -5 -35 57 -105 123 -138 54 -27 69
-30 155 -30 204 1 312 86 312 245 0 144 -67 205 -263 240 -75 13 -128 41 -130
67 -3 49 17 78 62 87 49 9 90 -5 132 -47 44 -44 40 -44 144 0 39 16 40 23 11
74 -52 93 -189 137 -335 109z"/>
</g>
</svg>
